<mxfile host="app.diagrams.net" modified="2023-11-19T00:44:53.795Z" agent="Mozilla/5.0 (Windows NT 10.0; Win64; x64; rv:109.0) Gecko/20100101 Firefox/119.0" etag="sjDNn7tLIBDtk8JmRPWZ" version="22.1.2" type="device">
  <diagram name="Page-1" id="T5EYXJv1ri5F9CuWuJAU">
    <mxGraphModel dx="2113" dy="1204" grid="1" gridSize="10" guides="1" tooltips="1" connect="1" arrows="1" fold="1" page="0" pageScale="1" pageWidth="850" pageHeight="1100" math="0" shadow="0">
      <root>
        <mxCell id="0" />
        <mxCell id="1" parent="0" />
        <mxCell id="LV5YEyjAx938TFkUb-Wb-127" value="" style="rounded=0;whiteSpace=wrap;html=1;fillColor=#FFF7F7;" vertex="1" parent="1">
          <mxGeometry x="610" y="840" width="510" height="200" as="geometry" />
        </mxCell>
        <mxCell id="LV5YEyjAx938TFkUb-Wb-101" value="" style="rounded=0;whiteSpace=wrap;html=1;fillColor=#F2FFF7;" vertex="1" parent="1">
          <mxGeometry x="610" y="90" width="510" height="740" as="geometry" />
        </mxCell>
        <mxCell id="LV5YEyjAx938TFkUb-Wb-58" value="" style="rounded=0;whiteSpace=wrap;html=1;fillColor=#F2FFF7;strokeColor=#000000;fillStyle=auto;fontColor=#000000;gradientColor=none;" vertex="1" parent="1">
          <mxGeometry x="20" y="90" width="510" height="420" as="geometry" />
        </mxCell>
        <mxCell id="LV5YEyjAx938TFkUb-Wb-57" value="" style="rounded=0;whiteSpace=wrap;html=1;fillColor=#FFF7F7;" vertex="1" parent="1">
          <mxGeometry x="20" y="530" width="510" height="510" as="geometry" />
        </mxCell>
        <mxCell id="LV5YEyjAx938TFkUb-Wb-5" value="" style="edgeStyle=orthogonalEdgeStyle;orthogonalLoop=1;jettySize=auto;html=1;" edge="1" parent="1" source="LV5YEyjAx938TFkUb-Wb-2" target="LV5YEyjAx938TFkUb-Wb-4">
          <mxGeometry relative="1" as="geometry">
            <Array as="points">
              <mxPoint x="240" y="90" />
              <mxPoint x="240" y="90" />
            </Array>
          </mxGeometry>
        </mxCell>
        <mxCell id="LV5YEyjAx938TFkUb-Wb-2" value="&lt;div&gt;Recording&lt;/div&gt;&lt;div style=&quot;font-size: 9px;&quot; align=&quot;center&quot;&gt;64 channel eego&lt;sup&gt;TM&lt;/sup&gt; sports mobile eeg system&lt;br&gt;&lt;/div&gt;" style="rounded=0;whiteSpace=wrap;html=1;fillColor=#e51400;fontColor=#ffffff;strokeColor=#B20000;" vertex="1" parent="1">
          <mxGeometry x="20" width="510" height="80" as="geometry" />
        </mxCell>
        <mxCell id="LV5YEyjAx938TFkUb-Wb-17" value="" style="edgeStyle=orthogonalEdgeStyle;orthogonalLoop=1;jettySize=auto;html=1;" edge="1" parent="1" source="LV5YEyjAx938TFkUb-Wb-4" target="LV5YEyjAx938TFkUb-Wb-16">
          <mxGeometry relative="1" as="geometry" />
        </mxCell>
        <mxCell id="LV5YEyjAx938TFkUb-Wb-4" value="&lt;div&gt;Digitisation&lt;/div&gt;" style="rounded=0;whiteSpace=wrap;html=1;" vertex="1" parent="1">
          <mxGeometry x="180" y="120" width="120" height="60" as="geometry" />
        </mxCell>
        <mxCell id="LV5YEyjAx938TFkUb-Wb-9" style="edgeStyle=orthogonalEdgeStyle;orthogonalLoop=1;jettySize=auto;html=1;exitX=0;exitY=0.5;exitDx=0;exitDy=0;entryX=1;entryY=0.5;entryDx=0;entryDy=0;fillColor=#d5e8d4;strokeColor=#82b366;" edge="1" parent="1" source="LV5YEyjAx938TFkUb-Wb-8" target="LV5YEyjAx938TFkUb-Wb-4">
          <mxGeometry relative="1" as="geometry" />
        </mxCell>
        <mxCell id="LV5YEyjAx938TFkUb-Wb-8" value="" style="rounded=0;whiteSpace=wrap;html=1;fillColor=#d5e8d4;strokeColor=#82b366;" vertex="1" parent="1">
          <mxGeometry x="400" y="120" width="120" height="60" as="geometry" />
        </mxCell>
        <mxCell id="LV5YEyjAx938TFkUb-Wb-10" value="Frequency" style="text;html=1;strokeColor=#82b366;fillColor=none;align=center;verticalAlign=middle;whiteSpace=wrap;rounded=0;" vertex="1" parent="1">
          <mxGeometry x="400" y="120" width="60" height="20" as="geometry" />
        </mxCell>
        <mxCell id="LV5YEyjAx938TFkUb-Wb-11" value="Reference" style="rounded=0;whiteSpace=wrap;html=1;fillColor=#d5e8d4;strokeColor=#82b366;" vertex="1" parent="1">
          <mxGeometry x="400" y="140" width="60" height="20" as="geometry" />
        </mxCell>
        <mxCell id="LV5YEyjAx938TFkUb-Wb-12" value="Ground" style="rounded=0;whiteSpace=wrap;html=1;fillColor=#d5e8d4;strokeColor=#82b366;" vertex="1" parent="1">
          <mxGeometry x="400" y="160" width="60" height="20" as="geometry" />
        </mxCell>
        <mxCell id="LV5YEyjAx938TFkUb-Wb-13" value="500 Hz" style="rounded=0;whiteSpace=wrap;html=1;fillColor=#dae8fc;strokeColor=#6c8ebf;" vertex="1" parent="1">
          <mxGeometry x="460" y="120" width="60" height="20" as="geometry" />
        </mxCell>
        <mxCell id="LV5YEyjAx938TFkUb-Wb-14" value="CPz" style="rounded=0;whiteSpace=wrap;html=1;fillColor=#dae8fc;strokeColor=#6c8ebf;" vertex="1" parent="1">
          <mxGeometry x="460" y="140" width="60" height="20" as="geometry" />
        </mxCell>
        <mxCell id="LV5YEyjAx938TFkUb-Wb-15" value="AFz" style="rounded=0;whiteSpace=wrap;html=1;fillColor=#dae8fc;strokeColor=#6c8ebf;" vertex="1" parent="1">
          <mxGeometry x="460" y="160" width="60" height="20" as="geometry" />
        </mxCell>
        <mxCell id="LV5YEyjAx938TFkUb-Wb-21" value="" style="edgeStyle=orthogonalEdgeStyle;orthogonalLoop=1;jettySize=auto;html=1;" edge="1" parent="1" source="LV5YEyjAx938TFkUb-Wb-16" target="LV5YEyjAx938TFkUb-Wb-20">
          <mxGeometry relative="1" as="geometry" />
        </mxCell>
        <mxCell id="LV5YEyjAx938TFkUb-Wb-16" value="&lt;div&gt;Detrending&lt;/div&gt;" style="rounded=0;whiteSpace=wrap;html=1;" vertex="1" parent="1">
          <mxGeometry x="180" y="220" width="120" height="60" as="geometry" />
        </mxCell>
        <mxCell id="LV5YEyjAx938TFkUb-Wb-28" value="" style="edgeStyle=orthogonalEdgeStyle;orthogonalLoop=1;jettySize=auto;html=1;" edge="1" parent="1" source="LV5YEyjAx938TFkUb-Wb-20" target="LV5YEyjAx938TFkUb-Wb-27">
          <mxGeometry relative="1" as="geometry" />
        </mxCell>
        <mxCell id="LV5YEyjAx938TFkUb-Wb-20" value="&lt;div&gt;Bandpass Filter&lt;br&gt;&lt;/div&gt;" style="shape=hexagon;perimeter=hexagonPerimeter2;whiteSpace=wrap;html=1;fixedSize=1;rounded=0;" vertex="1" parent="1">
          <mxGeometry x="180" y="320" width="120" height="80" as="geometry" />
        </mxCell>
        <mxCell id="LV5YEyjAx938TFkUb-Wb-22" value="Min" style="rounded=0;whiteSpace=wrap;html=1;fillColor=#d5e8d4;strokeColor=#82b366;" vertex="1" parent="1">
          <mxGeometry x="400" y="340" width="60" height="20" as="geometry" />
        </mxCell>
        <mxCell id="LV5YEyjAx938TFkUb-Wb-26" style="edgeStyle=orthogonalEdgeStyle;orthogonalLoop=1;jettySize=auto;html=1;exitX=0;exitY=0;exitDx=0;exitDy=0;entryX=1;entryY=0.5;entryDx=0;entryDy=0;fillColor=#d5e8d4;strokeColor=#82b366;" edge="1" parent="1" source="LV5YEyjAx938TFkUb-Wb-23" target="LV5YEyjAx938TFkUb-Wb-20">
          <mxGeometry relative="1" as="geometry">
            <Array as="points">
              <mxPoint x="380" y="360" />
              <mxPoint x="380" y="360" />
            </Array>
          </mxGeometry>
        </mxCell>
        <mxCell id="LV5YEyjAx938TFkUb-Wb-23" value="Max" style="rounded=0;whiteSpace=wrap;html=1;fillColor=#d5e8d4;strokeColor=#82b366;" vertex="1" parent="1">
          <mxGeometry x="400" y="360" width="60" height="20" as="geometry" />
        </mxCell>
        <mxCell id="LV5YEyjAx938TFkUb-Wb-24" value="0.5 Hz" style="rounded=0;whiteSpace=wrap;html=1;fillColor=#dae8fc;strokeColor=#6c8ebf;" vertex="1" parent="1">
          <mxGeometry x="460" y="340" width="60" height="20" as="geometry" />
        </mxCell>
        <mxCell id="LV5YEyjAx938TFkUb-Wb-25" value="36.0 Hz" style="rounded=0;whiteSpace=wrap;html=1;fillColor=#dae8fc;strokeColor=#6c8ebf;" vertex="1" parent="1">
          <mxGeometry x="460" y="360" width="60" height="20" as="geometry" />
        </mxCell>
        <mxCell id="LV5YEyjAx938TFkUb-Wb-39" value="" style="edgeStyle=orthogonalEdgeStyle;orthogonalLoop=1;jettySize=auto;html=1;" edge="1" parent="1" source="LV5YEyjAx938TFkUb-Wb-27" target="LV5YEyjAx938TFkUb-Wb-38">
          <mxGeometry relative="1" as="geometry" />
        </mxCell>
        <mxCell id="LV5YEyjAx938TFkUb-Wb-27" value="Epoched" style="whiteSpace=wrap;html=1;rounded=0;" vertex="1" parent="1">
          <mxGeometry x="180" y="440" width="120" height="60" as="geometry" />
        </mxCell>
        <mxCell id="LV5YEyjAx938TFkUb-Wb-30" value="Start" style="rounded=0;whiteSpace=wrap;html=1;fillColor=#d5e8d4;strokeColor=#82b366;" vertex="1" parent="1">
          <mxGeometry x="400" y="430" width="60" height="20" as="geometry" />
        </mxCell>
        <mxCell id="LV5YEyjAx938TFkUb-Wb-31" value="End" style="rounded=0;whiteSpace=wrap;html=1;fillColor=#d5e8d4;strokeColor=#82b366;" vertex="1" parent="1">
          <mxGeometry x="400" y="470" width="60" height="30" as="geometry" />
        </mxCell>
        <mxCell id="LV5YEyjAx938TFkUb-Wb-59" style="edgeStyle=orthogonalEdgeStyle;orthogonalLoop=1;jettySize=auto;html=1;exitX=0;exitY=1;exitDx=0;exitDy=0;entryX=1;entryY=0.5;entryDx=0;entryDy=0;fillColor=#d5e8d4;strokeColor=#82b366;" edge="1" parent="1" source="LV5YEyjAx938TFkUb-Wb-33" target="LV5YEyjAx938TFkUb-Wb-27">
          <mxGeometry relative="1" as="geometry">
            <Array as="points">
              <mxPoint x="380" y="470" />
              <mxPoint x="380" y="470" />
            </Array>
          </mxGeometry>
        </mxCell>
        <mxCell id="LV5YEyjAx938TFkUb-Wb-33" value="Nullpunkt" style="rounded=0;whiteSpace=wrap;html=1;fillColor=#d5e8d4;strokeColor=#82b366;" vertex="1" parent="1">
          <mxGeometry x="400" y="450" width="60" height="20" as="geometry" />
        </mxCell>
        <mxCell id="LV5YEyjAx938TFkUb-Wb-34" value="1s pre cue" style="rounded=0;whiteSpace=wrap;html=1;fillColor=#dae8fc;strokeColor=#6c8ebf;" vertex="1" parent="1">
          <mxGeometry x="460" y="430" width="60" height="20" as="geometry" />
        </mxCell>
        <mxCell id="LV5YEyjAx938TFkUb-Wb-35" value="cue onset" style="rounded=0;whiteSpace=wrap;html=1;fillColor=#dae8fc;strokeColor=#6c8ebf;" vertex="1" parent="1">
          <mxGeometry x="460" y="450" width="60" height="20" as="geometry" />
        </mxCell>
        <mxCell id="LV5YEyjAx938TFkUb-Wb-36" value="1s post response" style="rounded=0;whiteSpace=wrap;html=1;fillColor=#dae8fc;strokeColor=#6c8ebf;" vertex="1" parent="1">
          <mxGeometry x="460" y="470" width="60" height="30" as="geometry" />
        </mxCell>
        <mxCell id="LV5YEyjAx938TFkUb-Wb-41" value="" style="edgeStyle=orthogonalEdgeStyle;orthogonalLoop=1;jettySize=auto;html=1;fillColor=#f8cecc;strokeColor=#b85450;" edge="1" parent="1" source="LV5YEyjAx938TFkUb-Wb-38" target="LV5YEyjAx938TFkUb-Wb-40">
          <mxGeometry relative="1" as="geometry" />
        </mxCell>
        <mxCell id="LV5YEyjAx938TFkUb-Wb-38" value="Artifact Inspection" style="whiteSpace=wrap;html=1;rounded=0;fillColor=#f8cecc;strokeColor=#b85450;" vertex="1" parent="1">
          <mxGeometry x="180" y="540" width="120" height="60" as="geometry" />
        </mxCell>
        <mxCell id="LV5YEyjAx938TFkUb-Wb-43" value="" style="edgeStyle=orthogonalEdgeStyle;orthogonalLoop=1;jettySize=auto;html=1;fillColor=#f8cecc;strokeColor=#b85450;" edge="1" parent="1" source="LV5YEyjAx938TFkUb-Wb-40" target="LV5YEyjAx938TFkUb-Wb-42">
          <mxGeometry relative="1" as="geometry" />
        </mxCell>
        <mxCell id="LV5YEyjAx938TFkUb-Wb-44" value="Yes" style="edgeLabel;html=1;align=center;verticalAlign=middle;resizable=0;points=[];" vertex="1" connectable="0" parent="LV5YEyjAx938TFkUb-Wb-43">
          <mxGeometry x="0.1075" y="-1" relative="1" as="geometry">
            <mxPoint as="offset" />
          </mxGeometry>
        </mxCell>
        <mxCell id="LV5YEyjAx938TFkUb-Wb-46" value="" style="edgeStyle=orthogonalEdgeStyle;orthogonalLoop=1;jettySize=auto;html=1;fillColor=#f8cecc;strokeColor=#b85450;" edge="1" parent="1" source="LV5YEyjAx938TFkUb-Wb-40" target="LV5YEyjAx938TFkUb-Wb-45">
          <mxGeometry relative="1" as="geometry" />
        </mxCell>
        <mxCell id="LV5YEyjAx938TFkUb-Wb-47" value="No" style="edgeLabel;html=1;align=center;verticalAlign=middle;resizable=0;points=[];" vertex="1" connectable="0" parent="LV5YEyjAx938TFkUb-Wb-46">
          <mxGeometry x="-0.2767" relative="1" as="geometry">
            <mxPoint as="offset" />
          </mxGeometry>
        </mxCell>
        <mxCell id="LV5YEyjAx938TFkUb-Wb-40" value="&lt;div style=&quot;font-size: 9px;&quot;&gt;&lt;font style=&quot;font-size: 9px;&quot;&gt;Large&lt;/font&gt;&lt;/div&gt;&lt;div style=&quot;font-size: 9px;&quot;&gt;&lt;font style=&quot;font-size: 9px;&quot;&gt;Artifacts&lt;/font&gt;&lt;/div&gt;&lt;div style=&quot;font-size: 9px;&quot;&gt;&lt;font style=&quot;font-size: 9px;&quot;&gt;Present ?&lt;/font&gt;&lt;br style=&quot;font-size: 9px;&quot;&gt;&lt;/div&gt;" style="rhombus;whiteSpace=wrap;html=1;fillColor=#f8cecc;strokeColor=#b85450;rounded=0;fontSize=9;" vertex="1" parent="1">
          <mxGeometry x="200" y="640" width="80" height="80" as="geometry" />
        </mxCell>
        <mxCell id="LV5YEyjAx938TFkUb-Wb-42" value="Discard" style="ellipse;shape=cloud;whiteSpace=wrap;html=1;fontSize=12;fillColor=#f8cecc;strokeColor=#b85450;rounded=0;" vertex="1" parent="1">
          <mxGeometry x="20" y="640" width="120" height="80" as="geometry" />
        </mxCell>
        <mxCell id="LV5YEyjAx938TFkUb-Wb-49" value="" style="edgeStyle=orthogonalEdgeStyle;orthogonalLoop=1;jettySize=auto;html=1;" edge="1" parent="1" source="LV5YEyjAx938TFkUb-Wb-45" target="LV5YEyjAx938TFkUb-Wb-48">
          <mxGeometry relative="1" as="geometry" />
        </mxCell>
        <mxCell id="LV5YEyjAx938TFkUb-Wb-45" value="Identify Corrupted Electrodes" style="whiteSpace=wrap;html=1;fontSize=12;fillColor=#f8cecc;strokeColor=#b85450;rounded=0;" vertex="1" parent="1">
          <mxGeometry x="180" y="760" width="120" height="60" as="geometry" />
        </mxCell>
        <mxCell id="LV5YEyjAx938TFkUb-Wb-56" value="" style="edgeStyle=orthogonalEdgeStyle;orthogonalLoop=1;jettySize=auto;html=1;" edge="1" parent="1" source="LV5YEyjAx938TFkUb-Wb-48" target="LV5YEyjAx938TFkUb-Wb-55">
          <mxGeometry relative="1" as="geometry" />
        </mxCell>
        <mxCell id="LV5YEyjAx938TFkUb-Wb-48" value="Interpolate Corrupted Electrodes" style="whiteSpace=wrap;html=1;fontSize=12;rounded=0;" vertex="1" parent="1">
          <mxGeometry x="180" y="860" width="120" height="60" as="geometry" />
        </mxCell>
        <mxCell id="LV5YEyjAx938TFkUb-Wb-53" style="edgeStyle=orthogonalEdgeStyle;orthogonalLoop=1;jettySize=auto;html=1;exitX=0;exitY=0.5;exitDx=0;exitDy=0;entryX=1;entryY=0.5;entryDx=0;entryDy=0;" edge="1" parent="1" source="LV5YEyjAx938TFkUb-Wb-50" target="LV5YEyjAx938TFkUb-Wb-48">
          <mxGeometry relative="1" as="geometry" />
        </mxCell>
        <mxCell id="LV5YEyjAx938TFkUb-Wb-50" value="&lt;div&gt;Max. Interpolated&lt;/div&gt;&lt;div&gt;Electrodes&lt;br&gt;&lt;/div&gt;" style="rounded=0;whiteSpace=wrap;html=1;fillColor=#d5e8d4;strokeColor=#82b366;" vertex="1" parent="1">
          <mxGeometry x="400" y="860" width="80" height="60" as="geometry" />
        </mxCell>
        <mxCell id="LV5YEyjAx938TFkUb-Wb-54" value="2" style="rounded=0;whiteSpace=wrap;html=1;fillColor=#dae8fc;strokeColor=#6c8ebf;" vertex="1" parent="1">
          <mxGeometry x="480" y="860" width="40" height="60" as="geometry" />
        </mxCell>
        <mxCell id="LV5YEyjAx938TFkUb-Wb-55" value="FastICA" style="whiteSpace=wrap;html=1;fontSize=12;rounded=0;" vertex="1" parent="1">
          <mxGeometry x="180" y="960" width="120" height="60" as="geometry" />
        </mxCell>
        <mxCell id="LV5YEyjAx938TFkUb-Wb-60" value="Preparation" style="text;html=1;strokeColor=none;fillColor=none;align=center;verticalAlign=middle;whiteSpace=wrap;rounded=0;" vertex="1" parent="1">
          <mxGeometry x="20" y="90" width="70" height="30" as="geometry" />
        </mxCell>
        <mxCell id="LV5YEyjAx938TFkUb-Wb-61" value="Preprocessing Done" style="rounded=0;whiteSpace=wrap;html=1;fillColor=#e51400;fontColor=#ffffff;strokeColor=#B20000;" vertex="1" parent="1">
          <mxGeometry x="20" y="1060" width="510" height="80" as="geometry" />
        </mxCell>
        <mxCell id="LV5YEyjAx938TFkUb-Wb-62" style="edgeStyle=orthogonalEdgeStyle;orthogonalLoop=1;jettySize=auto;html=1;exitX=0.5;exitY=1;exitDx=0;exitDy=0;entryX=0.431;entryY=-0.006;entryDx=0;entryDy=0;entryPerimeter=0;" edge="1" parent="1" source="LV5YEyjAx938TFkUb-Wb-55" target="LV5YEyjAx938TFkUb-Wb-61">
          <mxGeometry relative="1" as="geometry" />
        </mxCell>
        <mxCell id="LV5YEyjAx938TFkUb-Wb-63" value="Cleanup" style="text;html=1;strokeColor=none;fillColor=none;align=center;verticalAlign=middle;whiteSpace=wrap;rounded=0;" vertex="1" parent="1">
          <mxGeometry x="20" y="530" width="60" height="30" as="geometry" />
        </mxCell>
        <mxCell id="LV5YEyjAx938TFkUb-Wb-64" value="Muscle &amp;amp; Eye signal cleanup" style="text;html=1;strokeColor=none;fillColor=none;align=center;verticalAlign=middle;whiteSpace=wrap;rounded=0;" vertex="1" parent="1">
          <mxGeometry x="50" y="975" width="60" height="30" as="geometry" />
        </mxCell>
        <mxCell id="LV5YEyjAx938TFkUb-Wb-70" value="" style="edgeStyle=orthogonalEdgeStyle;orthogonalLoop=1;jettySize=auto;html=1;" edge="1" parent="1" source="LV5YEyjAx938TFkUb-Wb-67" target="LV5YEyjAx938TFkUb-Wb-69">
          <mxGeometry relative="1" as="geometry">
            <Array as="points">
              <mxPoint x="830" y="100" />
              <mxPoint x="830" y="100" />
            </Array>
          </mxGeometry>
        </mxCell>
        <mxCell id="LV5YEyjAx938TFkUb-Wb-67" value="Preprocessed Data" style="rounded=0;whiteSpace=wrap;html=1;fillColor=#e51400;fontColor=#ffffff;strokeColor=#B20000;" vertex="1" parent="1">
          <mxGeometry x="610" width="510" height="80" as="geometry" />
        </mxCell>
        <mxCell id="LV5YEyjAx938TFkUb-Wb-85" value="" style="edgeStyle=orthogonalEdgeStyle;orthogonalLoop=1;jettySize=auto;html=1;" edge="1" parent="1" source="LV5YEyjAx938TFkUb-Wb-69" target="LV5YEyjAx938TFkUb-Wb-84">
          <mxGeometry relative="1" as="geometry" />
        </mxCell>
        <mxCell id="LV5YEyjAx938TFkUb-Wb-69" value="Morlet Wavelet Transform" style="whiteSpace=wrap;html=1;rounded=0;" vertex="1" parent="1">
          <mxGeometry x="770" y="120" width="120" height="60" as="geometry" />
        </mxCell>
        <mxCell id="LV5YEyjAx938TFkUb-Wb-71" value="Interval" style="whiteSpace=wrap;html=1;rounded=0;fillColor=#d5e8d4;strokeColor=#82b366;" vertex="1" parent="1">
          <mxGeometry x="990" y="130" width="60" height="20" as="geometry" />
        </mxCell>
        <mxCell id="LV5YEyjAx938TFkUb-Wb-73" value="1 Hz" style="rounded=0;whiteSpace=wrap;html=1;fillColor=#dae8fc;strokeColor=#6c8ebf;" vertex="1" parent="1">
          <mxGeometry x="1050" y="130" width="60" height="20" as="geometry" />
        </mxCell>
        <mxCell id="LV5YEyjAx938TFkUb-Wb-74" value="Range" style="rounded=0;whiteSpace=wrap;html=1;fillColor=#d5e8d4;strokeColor=#82b366;" vertex="1" parent="1">
          <mxGeometry x="990" y="110" width="60" height="20" as="geometry" />
        </mxCell>
        <mxCell id="LV5YEyjAx938TFkUb-Wb-75" value="2 - 30Hz" style="rounded=0;whiteSpace=wrap;html=1;fillColor=#dae8fc;strokeColor=#6c8ebf;" vertex="1" parent="1">
          <mxGeometry x="1050" y="110" width="60" height="20" as="geometry" />
        </mxCell>
        <mxCell id="LV5YEyjAx938TFkUb-Wb-83" style="edgeStyle=orthogonalEdgeStyle;orthogonalLoop=1;jettySize=auto;html=1;exitX=0;exitY=0;exitDx=0;exitDy=0;entryX=1;entryY=0.5;entryDx=0;entryDy=0;fillColor=#d5e8d4;strokeColor=#82b366;" edge="1" parent="1" source="LV5YEyjAx938TFkUb-Wb-76" target="LV5YEyjAx938TFkUb-Wb-69">
          <mxGeometry relative="1" as="geometry">
            <Array as="points">
              <mxPoint x="960" y="150" />
              <mxPoint x="960" y="150" />
            </Array>
          </mxGeometry>
        </mxCell>
        <mxCell id="LV5YEyjAx938TFkUb-Wb-76" value="Cycles / window" style="rounded=0;whiteSpace=wrap;html=1;fillColor=#d5e8d4;strokeColor=#82b366;" vertex="1" parent="1">
          <mxGeometry x="990" y="150" width="60" height="30" as="geometry" />
        </mxCell>
        <mxCell id="LV5YEyjAx938TFkUb-Wb-80" value="3" style="rounded=0;whiteSpace=wrap;html=1;fillColor=#dae8fc;strokeColor=#6c8ebf;" vertex="1" parent="1">
          <mxGeometry x="1050" y="150" width="60" height="30" as="geometry" />
        </mxCell>
        <mxCell id="LV5YEyjAx938TFkUb-Wb-81" value="Stepsize" style="rounded=0;whiteSpace=wrap;html=1;fillColor=#d5e8d4;strokeColor=#82b366;" vertex="1" parent="1">
          <mxGeometry x="990" y="180" width="60" height="20" as="geometry" />
        </mxCell>
        <mxCell id="LV5YEyjAx938TFkUb-Wb-82" value="50 ms" style="rounded=0;whiteSpace=wrap;html=1;fillColor=#dae8fc;strokeColor=#6c8ebf;" vertex="1" parent="1">
          <mxGeometry x="1050" y="180" width="60" height="20" as="geometry" />
        </mxCell>
        <mxCell id="LV5YEyjAx938TFkUb-Wb-87" value="" style="edgeStyle=orthogonalEdgeStyle;orthogonalLoop=1;jettySize=auto;html=1;" edge="1" parent="1" source="LV5YEyjAx938TFkUb-Wb-84" target="LV5YEyjAx938TFkUb-Wb-86">
          <mxGeometry relative="1" as="geometry" />
        </mxCell>
        <mxCell id="LV5YEyjAx938TFkUb-Wb-84" value="&lt;div&gt;Average within&lt;/div&gt;&lt;div&gt;Condition&lt;br&gt;&lt;/div&gt;" style="whiteSpace=wrap;html=1;rounded=0;" vertex="1" parent="1">
          <mxGeometry x="770" y="220" width="120" height="60" as="geometry" />
        </mxCell>
        <mxCell id="LV5YEyjAx938TFkUb-Wb-92" value="" style="edgeStyle=orthogonalEdgeStyle;orthogonalLoop=1;jettySize=auto;html=1;" edge="1" parent="1" source="LV5YEyjAx938TFkUb-Wb-86" target="LV5YEyjAx938TFkUb-Wb-91">
          <mxGeometry relative="1" as="geometry" />
        </mxCell>
        <mxCell id="LV5YEyjAx938TFkUb-Wb-86" value="Baseline Correction" style="whiteSpace=wrap;html=1;rounded=0;" vertex="1" parent="1">
          <mxGeometry x="770" y="320" width="120" height="60" as="geometry" />
        </mxCell>
        <mxCell id="LV5YEyjAx938TFkUb-Wb-89" style="edgeStyle=orthogonalEdgeStyle;orthogonalLoop=1;jettySize=auto;html=1;exitX=0;exitY=0.5;exitDx=0;exitDy=0;entryX=1;entryY=0.5;entryDx=0;entryDy=0;fillColor=#d5e8d4;strokeColor=#82b366;" edge="1" parent="1" source="LV5YEyjAx938TFkUb-Wb-88" target="LV5YEyjAx938TFkUb-Wb-86">
          <mxGeometry relative="1" as="geometry" />
        </mxCell>
        <mxCell id="LV5YEyjAx938TFkUb-Wb-88" value="At" style="rounded=0;whiteSpace=wrap;html=1;fillColor=#d5e8d4;strokeColor=#82b366;" vertex="1" parent="1">
          <mxGeometry x="990" y="320" width="60" height="60" as="geometry" />
        </mxCell>
        <mxCell id="LV5YEyjAx938TFkUb-Wb-90" value="&lt;div&gt;500 ms - 100 ms&lt;/div&gt;&lt;div&gt;pre cue&lt;br&gt;&lt;/div&gt;" style="rounded=0;whiteSpace=wrap;html=1;fillColor=#dae8fc;strokeColor=#6c8ebf;" vertex="1" parent="1">
          <mxGeometry x="1050" y="320" width="60" height="60" as="geometry" />
        </mxCell>
        <mxCell id="LV5YEyjAx938TFkUb-Wb-94" value="" style="edgeStyle=orthogonalEdgeStyle;orthogonalLoop=1;jettySize=auto;html=1;" edge="1" parent="1" source="LV5YEyjAx938TFkUb-Wb-91" target="LV5YEyjAx938TFkUb-Wb-93">
          <mxGeometry relative="1" as="geometry" />
        </mxCell>
        <mxCell id="LV5YEyjAx938TFkUb-Wb-96" value="" style="edgeStyle=orthogonalEdgeStyle;orthogonalLoop=1;jettySize=auto;html=1;" edge="1" parent="1" source="LV5YEyjAx938TFkUb-Wb-91" target="LV5YEyjAx938TFkUb-Wb-95">
          <mxGeometry relative="1" as="geometry" />
        </mxCell>
        <mxCell id="LV5YEyjAx938TFkUb-Wb-91" value="&lt;div&gt;Time-Frequency&lt;/div&gt;&lt;div&gt;Representation&lt;/div&gt;&lt;div&gt;Generated&lt;br&gt;&lt;/div&gt;" style="whiteSpace=wrap;html=1;rounded=0;" vertex="1" parent="1">
          <mxGeometry x="770" y="420" width="120" height="60" as="geometry" />
        </mxCell>
        <mxCell id="LV5YEyjAx938TFkUb-Wb-98" value="" style="edgeStyle=orthogonalEdgeStyle;orthogonalLoop=1;jettySize=auto;html=1;" edge="1" parent="1" source="LV5YEyjAx938TFkUb-Wb-93" target="LV5YEyjAx938TFkUb-Wb-97">
          <mxGeometry relative="1" as="geometry" />
        </mxCell>
        <mxCell id="LV5YEyjAx938TFkUb-Wb-93" value="&lt;div&gt;Alpha Band&lt;/div&gt;8-12 Hz" style="whiteSpace=wrap;html=1;rounded=0;" vertex="1" parent="1">
          <mxGeometry x="640" y="540" width="120" height="60" as="geometry" />
        </mxCell>
        <mxCell id="LV5YEyjAx938TFkUb-Wb-100" value="" style="edgeStyle=orthogonalEdgeStyle;orthogonalLoop=1;jettySize=auto;html=1;" edge="1" parent="1" source="LV5YEyjAx938TFkUb-Wb-95" target="LV5YEyjAx938TFkUb-Wb-99">
          <mxGeometry relative="1" as="geometry" />
        </mxCell>
        <mxCell id="LV5YEyjAx938TFkUb-Wb-95" value="&lt;div&gt;Theta Band&lt;/div&gt;&lt;div&gt;3-7 Hz&lt;br&gt;&lt;/div&gt;" style="whiteSpace=wrap;html=1;rounded=0;" vertex="1" parent="1">
          <mxGeometry x="970" y="540" width="120" height="60" as="geometry" />
        </mxCell>
        <mxCell id="LV5YEyjAx938TFkUb-Wb-104" style="edgeStyle=orthogonalEdgeStyle;orthogonalLoop=1;jettySize=auto;html=1;exitX=0.5;exitY=1;exitDx=0;exitDy=0;entryX=0.5;entryY=0;entryDx=0;entryDy=0;" edge="1" parent="1" source="LV5YEyjAx938TFkUb-Wb-97" target="LV5YEyjAx938TFkUb-Wb-103">
          <mxGeometry relative="1" as="geometry" />
        </mxCell>
        <mxCell id="LV5YEyjAx938TFkUb-Wb-97" value="Averaging" style="whiteSpace=wrap;html=1;rounded=0;" vertex="1" parent="1">
          <mxGeometry x="640" y="640" width="120" height="60" as="geometry" />
        </mxCell>
        <mxCell id="LV5YEyjAx938TFkUb-Wb-106" style="edgeStyle=orthogonalEdgeStyle;orthogonalLoop=1;jettySize=auto;html=1;exitX=0.5;exitY=1;exitDx=0;exitDy=0;entryX=0.5;entryY=0;entryDx=0;entryDy=0;" edge="1" parent="1" source="LV5YEyjAx938TFkUb-Wb-99" target="LV5YEyjAx938TFkUb-Wb-105">
          <mxGeometry relative="1" as="geometry" />
        </mxCell>
        <mxCell id="LV5YEyjAx938TFkUb-Wb-99" value="Averaging" style="whiteSpace=wrap;html=1;rounded=0;" vertex="1" parent="1">
          <mxGeometry x="970" y="640" width="120" height="60" as="geometry" />
        </mxCell>
        <mxCell id="LV5YEyjAx938TFkUb-Wb-102" value="Preparation" style="text;html=1;strokeColor=none;fillColor=none;align=center;verticalAlign=middle;whiteSpace=wrap;rounded=0;" vertex="1" parent="1">
          <mxGeometry x="610" y="90" width="70" height="30" as="geometry" />
        </mxCell>
        <mxCell id="LV5YEyjAx938TFkUb-Wb-113" style="edgeStyle=orthogonalEdgeStyle;orthogonalLoop=1;jettySize=auto;html=1;exitX=0;exitY=0;exitDx=0;exitDy=0;entryX=1;entryY=0.5;entryDx=0;entryDy=0;fillColor=#d5e8d4;strokeColor=#82b366;" edge="1" parent="1" source="LV5YEyjAx938TFkUb-Wb-109" target="LV5YEyjAx938TFkUb-Wb-103">
          <mxGeometry relative="1" as="geometry">
            <Array as="points">
              <mxPoint x="790" y="770" />
              <mxPoint x="790" y="770" />
            </Array>
          </mxGeometry>
        </mxCell>
        <mxCell id="LV5YEyjAx938TFkUb-Wb-116" value="" style="edgeStyle=orthogonalEdgeStyle;orthogonalLoop=1;jettySize=auto;html=1;" edge="1" parent="1" source="LV5YEyjAx938TFkUb-Wb-103" target="LV5YEyjAx938TFkUb-Wb-115">
          <mxGeometry relative="1" as="geometry">
            <Array as="points">
              <mxPoint x="700" y="820" />
              <mxPoint x="865" y="820" />
            </Array>
          </mxGeometry>
        </mxCell>
        <mxCell id="LV5YEyjAx938TFkUb-Wb-119" value="" style="edgeStyle=orthogonalEdgeStyle;orthogonalLoop=1;jettySize=auto;html=1;" edge="1" parent="1" source="LV5YEyjAx938TFkUb-Wb-103" target="LV5YEyjAx938TFkUb-Wb-118">
          <mxGeometry relative="1" as="geometry" />
        </mxCell>
        <mxCell id="LV5YEyjAx938TFkUb-Wb-103" value="&lt;div&gt;Non-Parametric&lt;/div&gt;&lt;div&gt;Cluster based permutation tests&lt;br&gt;&lt;/div&gt;" style="rounded=0;whiteSpace=wrap;html=1;" vertex="1" parent="1">
          <mxGeometry x="640" y="740" width="120" height="60" as="geometry" />
        </mxCell>
        <mxCell id="LV5YEyjAx938TFkUb-Wb-117" style="edgeStyle=orthogonalEdgeStyle;orthogonalLoop=1;jettySize=auto;html=1;exitX=0.5;exitY=1;exitDx=0;exitDy=0;entryX=0.5;entryY=0;entryDx=0;entryDy=0;" edge="1" parent="1" source="LV5YEyjAx938TFkUb-Wb-105" target="LV5YEyjAx938TFkUb-Wb-115">
          <mxGeometry relative="1" as="geometry">
            <Array as="points">
              <mxPoint x="1030" y="820" />
              <mxPoint x="865" y="820" />
            </Array>
          </mxGeometry>
        </mxCell>
        <mxCell id="LV5YEyjAx938TFkUb-Wb-121" value="" style="edgeStyle=orthogonalEdgeStyle;orthogonalLoop=1;jettySize=auto;html=1;" edge="1" parent="1" source="LV5YEyjAx938TFkUb-Wb-105" target="LV5YEyjAx938TFkUb-Wb-120">
          <mxGeometry relative="1" as="geometry" />
        </mxCell>
        <mxCell id="LV5YEyjAx938TFkUb-Wb-105" value="&lt;div&gt;Non-Parametric&lt;/div&gt;&lt;div&gt;Cluster based permutation tests&lt;br&gt;&lt;/div&gt;" style="rounded=0;whiteSpace=wrap;html=1;" vertex="1" parent="1">
          <mxGeometry x="970" y="740" width="120" height="60" as="geometry" />
        </mxCell>
        <mxCell id="LV5YEyjAx938TFkUb-Wb-107" value="&lt;div&gt;Permutation&lt;/div&gt;&lt;div&gt;Count&lt;br&gt;&lt;/div&gt;" style="rounded=0;whiteSpace=wrap;html=1;fillColor=#d5e8d4;strokeColor=#82b366;" vertex="1" parent="1">
          <mxGeometry x="805" y="740" width="80" height="30" as="geometry" />
        </mxCell>
        <mxCell id="LV5YEyjAx938TFkUb-Wb-114" style="edgeStyle=orthogonalEdgeStyle;orthogonalLoop=1;jettySize=auto;html=1;exitX=1;exitY=1;exitDx=0;exitDy=0;entryX=0;entryY=0.5;entryDx=0;entryDy=0;fillColor=#d5e8d4;strokeColor=#82b366;" edge="1" parent="1" source="LV5YEyjAx938TFkUb-Wb-108" target="LV5YEyjAx938TFkUb-Wb-105">
          <mxGeometry relative="1" as="geometry">
            <Array as="points">
              <mxPoint x="940" y="770" />
              <mxPoint x="940" y="770" />
            </Array>
          </mxGeometry>
        </mxCell>
        <mxCell id="LV5YEyjAx938TFkUb-Wb-108" value="5000" style="rounded=0;whiteSpace=wrap;html=1;fillColor=#dae8fc;strokeColor=#6c8ebf;" vertex="1" parent="1">
          <mxGeometry x="885" y="740" width="40" height="30" as="geometry" />
        </mxCell>
        <mxCell id="LV5YEyjAx938TFkUb-Wb-109" value="cluster alpha" style="rounded=0;whiteSpace=wrap;html=1;fillColor=#d5e8d4;strokeColor=#82b366;" vertex="1" parent="1">
          <mxGeometry x="805" y="770" width="80" height="20" as="geometry" />
        </mxCell>
        <mxCell id="LV5YEyjAx938TFkUb-Wb-110" value="p &amp;lt; .05" style="rounded=0;whiteSpace=wrap;html=1;fillColor=#dae8fc;strokeColor=#6c8ebf;" vertex="1" parent="1">
          <mxGeometry x="885" y="770" width="40" height="20" as="geometry" />
        </mxCell>
        <mxCell id="LV5YEyjAx938TFkUb-Wb-111" value="critical alpha" style="rounded=0;whiteSpace=wrap;html=1;fillColor=#d5e8d4;strokeColor=#82b366;" vertex="1" parent="1">
          <mxGeometry x="805" y="790" width="80" height="20" as="geometry" />
        </mxCell>
        <mxCell id="LV5YEyjAx938TFkUb-Wb-112" value="p &amp;lt; .05" style="rounded=0;whiteSpace=wrap;html=1;fillColor=#dae8fc;strokeColor=#6c8ebf;" vertex="1" parent="1">
          <mxGeometry x="885" y="790" width="40" height="20" as="geometry" />
        </mxCell>
        <mxCell id="LV5YEyjAx938TFkUb-Wb-115" value="Analysis" style="rounded=0;whiteSpace=wrap;html=1;fillColor=#f8cecc;strokeColor=#b85450;" vertex="1" parent="1">
          <mxGeometry x="805" y="860" width="120" height="60" as="geometry" />
        </mxCell>
        <mxCell id="LV5YEyjAx938TFkUb-Wb-123" value="" style="edgeStyle=orthogonalEdgeStyle;orthogonalLoop=1;jettySize=auto;html=1;" edge="1" parent="1" source="LV5YEyjAx938TFkUb-Wb-118" target="LV5YEyjAx938TFkUb-Wb-122">
          <mxGeometry relative="1" as="geometry">
            <Array as="points">
              <mxPoint x="700" y="950" />
              <mxPoint x="700" y="950" />
            </Array>
          </mxGeometry>
        </mxCell>
        <mxCell id="LV5YEyjAx938TFkUb-Wb-118" value="subtract invalid condition from valid" style="whiteSpace=wrap;html=1;rounded=0;" vertex="1" parent="1">
          <mxGeometry x="640" y="860" width="120" height="60" as="geometry" />
        </mxCell>
        <mxCell id="LV5YEyjAx938TFkUb-Wb-126" value="" style="edgeStyle=orthogonalEdgeStyle;orthogonalLoop=1;jettySize=auto;html=1;" edge="1" parent="1" source="LV5YEyjAx938TFkUb-Wb-120" target="LV5YEyjAx938TFkUb-Wb-125">
          <mxGeometry relative="1" as="geometry" />
        </mxCell>
        <mxCell id="LV5YEyjAx938TFkUb-Wb-120" value="subtract invalid condition from valid" style="whiteSpace=wrap;html=1;rounded=0;" vertex="1" parent="1">
          <mxGeometry x="970" y="860" width="120" height="60" as="geometry" />
        </mxCell>
        <mxCell id="LV5YEyjAx938TFkUb-Wb-122" value="&lt;div&gt;Compare magnitude of difference&lt;br&gt;&lt;/div&gt;" style="whiteSpace=wrap;html=1;rounded=0;fillColor=#f8cecc;strokeColor=#b85450;" vertex="1" parent="1">
          <mxGeometry x="640" y="960" width="120" height="60" as="geometry" />
        </mxCell>
        <mxCell id="LV5YEyjAx938TFkUb-Wb-125" value="&lt;div&gt;Compare magnitude of difference&lt;br&gt;&lt;/div&gt;" style="whiteSpace=wrap;html=1;rounded=0;fillColor=#f8cecc;strokeColor=#b85450;" vertex="1" parent="1">
          <mxGeometry x="970" y="960" width="120" height="60" as="geometry" />
        </mxCell>
      </root>
    </mxGraphModel>
  </diagram>
</mxfile>
